<svg width="224" height="224" viewBox="0 0 224 224" fill="none" xmlns="http://www.w3.org/2000/svg">
<path fill-rule="evenodd" clip-rule="evenodd" d="M57.0152 88.4416C58.124 92.1091 61.365 91.8532 62.3032 89.7209C63.8816 86.2635 61.7509 79.7594 61.2225 78.1464C61.1512 77.929 61.1091 77.8005 61.1091 77.7802C61.1091 77.7707 61.1 77.6516 61.0833 77.4336L61.0833 77.4334C60.8022 73.7653 58.3768 42.1187 61.1944 33.3438C63.2964 26.957 82.8701 26.7774 90.9339 26.7034C91.3773 26.6993 91.7859 26.6955 92.155 26.6911C102.731 26.6911 162.776 28.9086 167.552 35.7319C168.891 37.7402 168.259 40.8158 167.591 44.0726L167.552 44.261C165.77 64.789 162.405 85.1487 157.488 105.159C157.36 105.542 157.315 105.949 157.354 106.351C157.393 106.754 157.516 107.144 157.715 107.496C157.913 107.848 158.183 108.155 158.508 108.396C158.832 108.638 159.203 108.809 159.598 108.899C159.992 108.988 160.401 108.994 160.798 108.917C161.194 108.839 161.571 108.679 161.902 108.447C162.233 108.216 162.513 107.917 162.722 107.571C162.931 107.225 163.066 106.839 163.117 106.438C168.831 86.3359 173.051 65.8386 175.74 45.1139C176.476 42.7259 176.734 40.2163 176.5 37.7284C176.266 35.2405 175.544 32.8231 174.375 30.6145C170.343 24.0897 159.505 22.6062 151.07 21.4515L151.07 21.4515C149.691 21.2628 148.377 21.083 147.167 20.8913C125.077 17.7356 83.0288 13.6416 62.2179 22.0001C53.1771 25.5823 53.0065 32.235 52.8359 41.2758C53.0802 57.0784 54.477 72.8422 57.0152 88.4416ZM150.412 62.0027C150.971 61.7754 151.459 61.404 151.828 60.9264C152.196 60.4487 152.431 59.8819 152.509 59.2837C152.587 58.6855 152.505 58.0773 152.272 57.5211C152.038 56.9649 151.661 56.4807 151.179 56.1176C149.753 54.7708 146.414 54.3071 137.129 53.0176C136.418 52.9188 135.672 52.8152 134.889 52.706C123.015 51.0622 110.983 50.8903 99.0668 52.1943C85.0791 52.1943 84.3968 52.1943 82.0087 53.3883C81.6881 53.7171 81.4654 54.1286 81.3655 54.5767C81.2655 55.0249 81.2923 55.492 81.4428 55.9258C81.5933 56.3596 81.8616 56.7429 82.2176 57.0329C82.5736 57.3229 83.0033 57.508 83.4586 57.5676L88.3202 58.2499C103.489 61.1604 118.979 62.021 134.377 60.8086C134.974 60.8939 149.729 62.3439 150.412 62.0027ZM130.105 79.9999C135.748 80.0927 141.305 81.4018 146.395 83.838C146.77 84.0109 147.104 84.2619 147.374 84.5741C147.644 84.8864 147.844 85.2527 147.961 85.6485C148.079 86.0444 148.11 86.4607 148.053 86.8696C147.996 87.2785 147.853 87.6706 147.632 88.0197C147.412 88.3687 147.12 88.6667 146.775 88.8936C146.43 89.1205 146.041 89.2712 145.633 89.3356C145.225 89.3999 144.808 89.3765 144.41 89.2668C144.012 89.1571 143.642 88.9637 143.325 88.6995C138.781 87.7353 134.102 87.5909 129.508 88.2731C103.992 87.9366 94.5154 85.9409 89.708 84.9285C87.2038 84.4011 85.9665 84.1405 84.3891 84.5203C84.0699 84.6272 83.7328 84.67 83.397 84.6464C83.0612 84.6228 82.7334 84.5331 82.4323 84.3826C82.1312 84.232 81.8628 84.0236 81.6424 83.7691C81.422 83.5147 81.254 83.2193 81.148 82.8998C79.6988 78.3632 87.7453 78.4347 95.8311 78.5067C98.6906 78.5321 101.555 78.5576 104.006 78.3794C112.738 78.0139 121.485 78.557 130.105 79.9999Z" fill="#1945B7"/>
<path fill-rule="evenodd" clip-rule="evenodd" d="M25.8025 68.6574C28.267 74.5714 30.4304 80.6063 32.2846 86.7391C32.3525 87.4177 32.6872 88.0415 33.215 88.4734C33.7428 88.9053 34.4206 89.1098 35.0992 89.0419C35.7779 88.974 36.4017 88.6394 36.8336 88.1115C37.2655 87.5837 37.4699 86.9059 37.4021 86.2273C36.7864 77.2804 35.388 68.4047 33.2228 59.7019C33.0955 59.1044 32.9378 58.5317 32.785 57.9768C31.6072 53.6992 30.7201 50.4774 46.2723 45.1172C46.9851 44.9054 47.5892 44.428 47.96 43.7835C48.3308 43.139 48.4399 42.3768 48.2647 41.6542C48.0895 40.9316 47.6435 40.3039 47.0187 39.9008C46.394 39.4976 45.6382 39.3499 44.9077 39.488C21.9645 42.6438 19.491 51.1728 25.8025 68.6574ZM188.452 52.0214C194.693 53.5974 200.185 57.3091 203.975 62.5122C208.891 71.9989 194.918 93.4043 187.615 104.591L187.615 104.591L187.614 104.593C185.922 107.184 184.589 109.226 183.931 110.446C183.547 111.113 182.913 111.6 182.169 111.8C181.425 112 180.632 111.896 179.965 111.512C179.298 111.127 178.811 110.493 178.611 109.749C178.411 109.006 178.514 108.213 178.899 107.546C184.91 96.2253 190.015 84.4468 194.166 72.3206C194.435 71.7316 194.73 71.1726 195.016 70.6308C197.09 66.7006 198.687 63.6731 186.319 56.6271C185.793 56.2957 185.406 55.7841 185.229 55.1877C185.053 54.5914 185.099 53.9512 185.361 53.3869C185.622 52.8226 186.08 52.3727 186.649 52.1214C187.218 51.8701 187.858 51.8345 188.452 52.0214ZM103.015 123.649C124.529 122.904 168.393 121.386 179.24 122.983C184.042 123.396 188.558 125.443 192.033 128.783C198.26 136.715 192.63 157.27 189.73 167.164C188.58 171.191 187.504 176.049 186.371 181.164L186.371 181.164C182.799 197.284 178.663 215.954 169.858 219.191C157.459 221.904 144.73 222.795 132.074 221.835C110.067 220.7 94.1674 220.254 82.7887 219.935C59.99 219.296 55.3403 219.165 56.0799 215.012C56.6322 212.128 59.1707 212.467 62.2984 212.884C63.5184 213.046 64.828 213.221 66.1442 213.221L84.4818 214.244C102.094 214.01 114.318 214.332 124.212 214.592H124.213H124.213H124.213H124.214C135.88 214.899 144.306 215.121 154.505 214.244C167.957 213.137 168.709 211.735 169.837 209.631L169.837 209.631C169.925 209.467 170.015 209.299 170.114 209.127C173.779 202.801 176.543 189.263 178.86 177.914C179.885 172.891 180.823 168.296 181.713 164.946C182.993 160.255 188.707 139.189 185.381 135.18C182.459 131.659 162.1 132.612 156.034 132.897C155.194 132.936 154.628 132.962 154.42 132.962C138.709 132.553 124.284 133.059 112.305 133.48H112.305C94.3707 134.109 81.9208 134.547 78.8526 131.427C75.6683 128.19 74.6635 121.518 73.8657 116.22C73.3813 113.004 72.9732 110.294 72.1999 109.166L60.3445 108.655C53.3506 108.569 28.9575 112.578 26.2282 118.037C26.9406 125.357 28.6035 132.554 31.1751 139.445C35.4629 159.496 41.1632 179.219 48.2332 198.466C48.516 199.088 48.54 199.797 48.3001 200.436C48.0602 201.076 47.5759 201.595 46.9538 201.877C46.3318 202.16 45.6229 202.184 44.9831 201.944C44.3433 201.704 43.825 201.22 43.5422 200.598C35.7557 181.179 29.371 161.226 24.4371 140.894C24.0844 139.74 23.5812 138.294 23.015 136.667C20.5688 129.637 16.9487 119.233 19.2344 114.454C24.8635 102.343 70.6647 95.4345 77.5732 102.343C80.7004 107.606 82.5143 113.545 82.8612 119.657C82.9153 119.871 82.9668 120.075 83.0161 120.271C83.6528 122.798 83.9193 123.856 84.5771 124.235C85.0507 124.508 85.7272 124.429 86.8908 124.294L86.8909 124.294C87.9325 124.173 89.3643 124.007 91.3903 124.007C92.6652 124.007 96.9524 123.859 103.014 123.649L103.015 123.649ZM107.377 194.519C108.002 194.587 108.628 194.405 109.12 194.014C109.612 193.623 109.93 193.053 110.005 192.429C111.231 185.289 111.452 178.012 110.662 170.811C110.097 165.576 108.274 160.556 105.347 156.18C103.948 154.101 101.815 152.629 99.3747 152.059C95.9502 151.784 92.5563 152.879 89.9392 155.105C87.2019 157.073 85.1209 159.82 83.9673 162.988C82.871 166.585 82.3667 170.337 82.4743 174.096C81.9685 174.236 81.5315 174.556 81.2455 174.996C80.9595 175.436 80.8443 175.965 80.9216 176.484C81.0148 176.858 81.2185 177.194 81.5062 177.45C81.7939 177.706 82.1522 177.869 82.534 177.918V183.352C82.9521 187.114 83.4895 190.877 84.0867 194.639C84.0763 194.937 84.1299 195.234 84.2439 195.51C84.3578 195.786 84.5295 196.034 84.7474 196.238C84.9653 196.442 85.2243 196.597 85.507 196.692C85.7898 196.787 86.0897 196.821 86.3866 196.791C86.6835 196.761 86.9705 196.668 87.2283 196.517C87.4861 196.367 87.7087 196.163 87.8812 195.92C88.0537 195.676 88.172 195.399 88.2283 195.106C88.2845 194.813 88.2774 194.511 88.2073 194.221V183.173V178.694H90.8947C91.9886 178.755 93.0852 178.755 94.1792 178.694H97.5234C98.7906 178.694 100.022 178.588 101.257 178.481L101.258 178.481C102.293 178.392 103.329 178.303 104.391 178.276C105.109 182.778 105.428 187.334 105.347 191.892C105.305 192.198 105.324 192.509 105.404 192.808C105.484 193.107 105.622 193.386 105.811 193.631C106 193.876 106.236 194.08 106.505 194.233C106.774 194.385 107.07 194.483 107.377 194.519ZM98.5387 171.587C97.3361 171.36 96.1186 171.22 94.8958 171.169C93.6445 171.05 92.3848 171.05 91.1335 171.169C90.6677 171.281 90.209 171.421 89.76 171.587C89.9605 170.057 90.2597 168.541 90.6558 167.049C91.2535 164.668 92.6435 162.562 94.5972 161.077C95.4557 160.263 96.5365 159.723 97.7026 159.524C98.2998 159.524 98.7775 159.882 99.315 160.539C101.752 163.774 103.389 167.539 104.093 171.528V172.722C102.261 172.251 100.408 171.872 98.5387 171.587ZM120.755 191.239C120.205 191.269 119.689 191.509 119.311 191.909C118.933 192.309 118.723 192.839 118.724 193.389C118.732 193.663 118.794 193.934 118.906 194.184C119.018 194.435 119.179 194.661 119.378 194.85C119.578 195.038 119.813 195.185 120.07 195.283C120.326 195.381 120.6 195.427 120.874 195.419C121.614 195.627 122.309 195.871 122.998 196.113L122.998 196.113C124.088 196.495 125.161 196.872 126.368 197.091C127.162 197.18 127.963 197.18 128.757 197.091C129.582 197.084 130.403 196.984 131.205 196.793C133.14 196.37 135.038 195.79 136.879 195.061C137.447 194.932 137.949 194.599 138.29 194.126C138.63 193.652 138.786 193.071 138.727 192.491C138.668 191.911 138.399 191.372 137.971 190.976C137.542 190.581 136.984 190.355 136.401 190.343C135.278 190.343 134.259 190.075 133.233 189.806L133.233 189.806C132.513 189.616 131.79 189.426 131.026 189.328V188.91C131.22 187.984 131.422 187.062 131.624 186.14L131.624 186.14C132.228 183.375 132.833 180.609 133.236 177.742C133.774 174.528 133.954 171.263 133.773 168.008C133.53 165.379 133.132 162.767 132.579 160.185C133.55 160.185 134.475 160.046 135.384 159.91C136.265 159.778 137.132 159.648 138.013 159.648C138.623 159.793 139.265 159.692 139.801 159.368C140.337 159.044 140.725 158.523 140.88 157.916C141.025 157.306 140.924 156.664 140.6 156.128C140.277 155.592 139.755 155.205 139.148 155.049C137.234 154.089 135.235 153.309 133.176 152.72C132.27 152.538 131.352 152.419 130.429 152.362C129.557 152.242 128.673 152.242 127.801 152.362C125.783 152.815 123.79 153.373 121.83 154.034C121.275 154.034 120.744 154.254 120.352 154.646C119.96 155.038 119.739 155.57 119.739 156.124C119.739 156.679 119.96 157.21 120.352 157.602C120.744 157.994 121.275 158.214 121.83 158.214C122.372 158.367 122.909 158.529 123.451 158.693C124.82 159.105 126.219 159.527 127.801 159.827C127.662 160.703 127.516 161.572 127.37 162.441L127.37 162.442C127.078 164.18 126.786 165.918 126.547 167.71C126.547 168.562 126.457 169.415 126.366 170.277C126.292 170.986 126.216 171.7 126.189 172.427C126.149 173.505 126.163 174.555 126.176 175.597C126.183 176.115 126.189 176.63 126.189 177.145C126.189 179.376 126.332 181.547 126.474 183.715L126.474 183.716C126.575 185.262 126.677 186.807 126.727 188.372V189.149H126.428C124.491 189.714 122.595 190.412 120.755 191.239Z" fill="#686D8B"/>
</svg>
